<svg xmlns="http://www.w3.org/2000/svg" viewBox="0 0 600 400" role="img"><title>Hollow adapter</title><desc>Isometric rendering generated from the evaluated editable template, not a photo of a printed part.</desc><polygon points="326.33,137.89 300.00,137.03 300.00,61.25" fill="rgb(83,92,181)" stroke="rgb(83,92,181)" stroke-width=".9" stroke-linejoin="round"/><polygon points="300.00,137.03 273.67,137.89 284.15,61.76" fill="rgb(83,92,181)" stroke="rgb(83,92,181)" stroke-width=".9" stroke-linejoin="round"/><polygon points="352.21,140.46 326.33,137.89 315.85,61.76" fill="rgb(83,92,181)" stroke="rgb(83,92,181)" stroke-width=".9" stroke-linejoin="round"/><polygon points="273.67,137.89 247.79,140.46 268.58,63.31" fill="rgb(83,92,181)" stroke="rgb(83,92,181)" stroke-width=".9" stroke-linejoin="round"/><polygon points="377.20,144.70 352.21,140.46 331.42,63.31" fill="rgb(83,92,181)" stroke="rgb(83,92,181)" stroke-width=".9" stroke-linejoin="round"/><polygon points="247.79,140.46 222.80,144.70 253.54,65.87" fill="rgb(83,92,181)" stroke="rgb(83,92,181)" stroke-width=".9" stroke-linejoin="round"/><polygon points="400.86,150.54 377.20,144.70 346.46,65.87" fill="rgb(83,92,181)" stroke="rgb(83,92,181)" stroke-width=".9" stroke-linejoin="round"/><polygon points="222.80,144.70 199.14,150.54 239.30,69.38" fill="rgb(83,92,181)" stroke="rgb(83,92,181)" stroke-width=".9" stroke-linejoin="round"/><polygon points="422.80,157.87 400.86,150.54 360.70,69.38" fill="rgb(83,92,181)" stroke="rgb(83,92,181)" stroke-width=".9" stroke-linejoin="round"/><polygon points="199.14,150.54 177.20,157.87 226.10,73.79" fill="rgb(83,92,181)" stroke="rgb(83,92,181)" stroke-width=".9" stroke-linejoin="round"/><polygon points="422.80,157.87 373.90,73.79 442.64,166.57" fill="rgb(83,92,181)" stroke="rgb(83,92,181)" stroke-width=".9" stroke-linejoin="round"/><polygon points="177.20,157.87 157.36,166.57 214.16,79.02" fill="rgb(83,92,181)" stroke="rgb(83,92,181)" stroke-width=".9" stroke-linejoin="round"/><polygon points="284.15,61.76 300.00,61.25 300.00,137.03" fill="rgb(83,92,181)" stroke="rgb(83,92,181)" stroke-width=".9" stroke-linejoin="round"/><polygon points="300.00,61.25 315.85,61.76 326.33,137.89" fill="rgb(83,92,181)" stroke="rgb(83,92,181)" stroke-width=".9" stroke-linejoin="round"/><polygon points="273.67,137.89 268.58,63.31 284.15,61.76" fill="rgb(83,92,181)" stroke="rgb(83,92,181)" stroke-width=".9" stroke-linejoin="round"/><polygon points="315.85,61.76 331.42,63.31 352.21,140.46" fill="rgb(83,92,181)" stroke="rgb(83,92,181)" stroke-width=".9" stroke-linejoin="round"/><polygon points="460.04,176.49 442.64,166.57 385.84,79.02" fill="rgb(83,92,181)" stroke="rgb(83,92,181)" stroke-width=".9" stroke-linejoin="round"/><polygon points="253.54,65.87 268.58,63.31 247.79,140.46" fill="rgb(83,92,181)" stroke="rgb(83,92,181)" stroke-width=".9" stroke-linejoin="round"/><polygon points="157.36,166.57 139.96,176.49 203.69,84.99" fill="rgb(83,92,181)" stroke="rgb(83,92,181)" stroke-width=".9" stroke-linejoin="round"/><polygon points="331.42,63.31 346.46,65.87 377.20,144.70" fill="rgb(83,92,181)" stroke="rgb(83,92,181)" stroke-width=".9" stroke-linejoin="round"/><polygon points="239.30,69.38 253.54,65.87 222.80,144.70" fill="rgb(83,92,181)" stroke="rgb(83,92,181)" stroke-width=".9" stroke-linejoin="round"/><polygon points="346.46,65.87 360.70,69.38 400.86,150.54" fill="rgb(83,92,181)" stroke="rgb(83,92,181)" stroke-width=".9" stroke-linejoin="round"/><polygon points="199.14,150.54 226.10,73.79 239.30,69.38" fill="rgb(83,92,181)" stroke="rgb(83,92,181)" stroke-width=".9" stroke-linejoin="round"/><polygon points="474.70,187.46 460.04,176.49 396.31,84.99" fill="rgb(83,92,181)" stroke="rgb(83,92,181)" stroke-width=".9" stroke-linejoin="round"/><polygon points="139.96,176.49 125.30,187.46 194.87,91.59" fill="rgb(83,92,181)" stroke="rgb(83,92,181)" stroke-width=".9" stroke-linejoin="round"/><polygon points="360.70,69.38 373.90,73.79 422.80,157.87" fill="rgb(83,92,181)" stroke="rgb(83,92,181)" stroke-width=".9" stroke-linejoin="round"/><polygon points="214.16,79.02 226.10,73.79 177.20,157.87" fill="rgb(83,92,181)" stroke="rgb(83,92,181)" stroke-width=".9" stroke-linejoin="round"/><polygon points="442.64,166.57 373.90,73.79 385.84,79.02" fill="rgb(83,92,181)" stroke="rgb(83,92,181)" stroke-width=".9" stroke-linejoin="round"/><polygon points="486.37,199.29 474.70,187.46 405.13,91.59" fill="rgb(83,92,181)" stroke="rgb(83,92,181)" stroke-width=".9" stroke-linejoin="round"/><polygon points="300.00,55.00 317.48,55.57 300.00,61.25" fill="rgb(102,116,216)" stroke="rgb(102,116,216)" stroke-width=".9" stroke-linejoin="round"/><polygon points="300.00,55.00 284.15,61.76 282.52,55.57" fill="rgb(102,116,216)" stroke="rgb(102,116,216)" stroke-width=".9" stroke-linejoin="round"/><polygon points="334.65,57.28 315.85,61.76 317.48,55.57" fill="rgb(102,116,216)" stroke="rgb(102,116,216)" stroke-width=".9" stroke-linejoin="round"/><polygon points="157.36,166.57 203.69,84.99 214.16,79.02" fill="rgb(83,92,181)" stroke="rgb(83,92,181)" stroke-width=".9" stroke-linejoin="round"/><polygon points="125.30,187.46 113.63,199.29 187.84,98.72" fill="rgb(83,92,181)" stroke="rgb(83,92,181)" stroke-width=".9" stroke-linejoin="round"/><polygon points="300.00,55.00 300.00,61.25 284.15,61.76" fill="rgb(102,116,216)" stroke="rgb(102,116,216)" stroke-width=".9" stroke-linejoin="round"/><polygon points="317.48,55.57 315.85,61.76 300.00,61.25" fill="rgb(102,116,216)" stroke="rgb(102,116,216)" stroke-width=".9" stroke-linejoin="round"/><polygon points="265.35,57.28 282.52,55.57 253.54,65.87" fill="rgb(102,116,216)" stroke="rgb(102,116,216)" stroke-width=".9" stroke-linejoin="round"/><polygon points="282.52,55.57 284.15,61.76 268.58,63.31" fill="rgb(102,116,216)" stroke="rgb(102,116,216)" stroke-width=".9" stroke-linejoin="round"/><polygon points="334.65,57.28 351.24,60.10 331.42,63.31" fill="rgb(102,116,216)" stroke="rgb(102,116,216)" stroke-width=".9" stroke-linejoin="round"/><polygon points="334.65,57.28 331.42,63.31 315.85,61.76" fill="rgb(102,116,216)" stroke="rgb(102,116,216)" stroke-width=".9" stroke-linejoin="round"/><polygon points="282.52,55.57 268.58,63.31 253.54,65.87" fill="rgb(102,116,216)" stroke="rgb(102,116,216)" stroke-width=".9" stroke-linejoin="round"/><polygon points="460.04,176.49 385.84,79.02 396.31,84.99" fill="rgb(83,92,181)" stroke="rgb(83,92,181)" stroke-width=".9" stroke-linejoin="round"/><polygon points="265.35,57.28 239.30,69.38 248.76,60.10" fill="rgb(102,116,216)" stroke="rgb(102,116,216)" stroke-width=".9" stroke-linejoin="round"/><polygon points="351.24,60.10 346.46,65.87 331.42,63.31" fill="rgb(102,116,216)" stroke="rgb(102,116,216)" stroke-width=".9" stroke-linejoin="round"/><polygon points="351.24,60.10 366.94,63.97 346.46,65.87" fill="rgb(102,116,216)" stroke="rgb(102,116,216)" stroke-width=".9" stroke-linejoin="round"/><polygon points="265.35,57.28 253.54,65.87 239.30,69.38" fill="rgb(102,116,216)" stroke="rgb(102,116,216)" stroke-width=".9" stroke-linejoin="round"/><polygon points="497.91,196.90 506.92,210.17 423.70,96.33" fill="rgb(85,94,184)" stroke="rgb(85,94,184)" stroke-width=".9" stroke-linejoin="round"/><polygon points="194.87,91.59 203.69,84.99 139.96,176.49" fill="rgb(83,92,181)" stroke="rgb(83,92,181)" stroke-width=".9" stroke-linejoin="round"/><polygon points="366.94,63.97 360.70,69.38 346.46,65.87" fill="rgb(102,116,216)" stroke="rgb(102,116,216)" stroke-width=".9" stroke-linejoin="round"/><polygon points="366.94,63.97 381.51,68.83 360.70,69.38" fill="rgb(102,116,216)" stroke="rgb(102,116,216)" stroke-width=".9" stroke-linejoin="round"/><polygon points="102.09,196.90 170.68,104.62 93.08,210.17" fill="rgb(83,92,181)" stroke="rgb(83,92,181)" stroke-width=".9" stroke-linejoin="round"/><polygon points="248.76,60.10 239.30,69.38 226.10,73.79" fill="rgb(102,116,216)" stroke="rgb(102,116,216)" stroke-width=".9" stroke-linejoin="round"/><polygon points="396.31,84.99 405.13,91.59 474.70,187.46" fill="rgb(83,92,181)" stroke="rgb(83,92,181)" stroke-width=".9" stroke-linejoin="round"/><polygon points="381.51,68.83 373.90,73.79 360.70,69.38" fill="rgb(102,116,216)" stroke="rgb(102,116,216)" stroke-width=".9" stroke-linejoin="round"/><polygon points="248.76,60.10 226.10,73.79 214.16,79.02" fill="rgb(102,116,216)" stroke="rgb(102,116,216)" stroke-width=".9" stroke-linejoin="round"/><polygon points="381.51,68.83 394.67,74.61 373.90,73.79" fill="rgb(102,116,216)" stroke="rgb(102,116,216)" stroke-width=".9" stroke-linejoin="round"/><polygon points="248.76,60.10 176.30,96.33 233.06,63.97" fill="rgb(102,116,216)" stroke="rgb(102,116,216)" stroke-width=".9" stroke-linejoin="round"/><polygon points="233.06,63.97 184.05,88.47 218.49,68.83" fill="rgb(102,116,216)" stroke="rgb(102,116,216)" stroke-width=".9" stroke-linejoin="round"/><polygon points="187.84,98.72 194.87,91.59 125.30,187.46" fill="rgb(83,92,181)" stroke="rgb(83,92,181)" stroke-width=".9" stroke-linejoin="round"/><polygon points="218.49,68.83 193.78,81.19 205.33,74.61" fill="rgb(102,116,216)" stroke="rgb(102,116,216)" stroke-width=".9" stroke-linejoin="round"/><polygon points="394.67,74.61 385.84,79.02 373.90,73.79" fill="rgb(102,116,216)" stroke="rgb(102,116,216)" stroke-width=".9" stroke-linejoin="round"/><polygon points="506.92,210.17 512.39,223.91 429.32,104.62" fill="rgb(87,96,187)" stroke="rgb(87,96,187)" stroke-width=".9" stroke-linejoin="round"/><polygon points="394.67,74.61 406.22,81.19 385.84,79.02" fill="rgb(102,116,216)" stroke="rgb(102,116,216)" stroke-width=".9" stroke-linejoin="round"/><polygon points="405.13,91.59 412.16,98.72 486.37,199.29" fill="rgb(83,92,181)" stroke="rgb(83,92,181)" stroke-width=".9" stroke-linejoin="round"/><polygon points="248.76,60.10 214.16,79.02 176.30,96.33" fill="rgb(102,116,216)" stroke="rgb(102,116,216)" stroke-width=".9" stroke-linejoin="round"/><polygon points="93.08,210.17 167.26,113.21 87.61,223.91" fill="rgb(83,92,181)" stroke="rgb(83,92,181)" stroke-width=".9" stroke-linejoin="round"/><polygon points="218.49,68.83 184.05,88.47 193.78,81.19" fill="rgb(102,116,216)" stroke="rgb(102,116,216)" stroke-width=".9" stroke-linejoin="round"/><polygon points="102.09,196.90 176.30,96.33 170.68,104.62" fill="rgb(83,92,181)" stroke="rgb(83,92,181)" stroke-width=".9" stroke-linejoin="round"/><polygon points="406.22,81.19 396.31,84.99 385.84,79.02" fill="rgb(102,116,216)" stroke="rgb(102,116,216)" stroke-width=".9" stroke-linejoin="round"/><polygon points="233.06,63.97 176.30,96.33 184.05,88.47" fill="rgb(102,116,216)" stroke="rgb(102,116,216)" stroke-width=".9" stroke-linejoin="round"/><polygon points="406.22,81.19 415.95,88.47 396.31,84.99" fill="rgb(102,116,216)" stroke="rgb(102,116,216)" stroke-width=".9" stroke-linejoin="round"/><polygon points="506.92,210.17 429.32,104.62 423.70,96.33" fill="rgb(85,94,184)" stroke="rgb(85,94,184)" stroke-width=".9" stroke-linejoin="round"/><polygon points="176.30,96.33 214.16,79.02 203.69,84.99" fill="rgb(102,116,216)" stroke="rgb(102,116,216)" stroke-width=".9" stroke-linejoin="round"/><polygon points="415.95,88.47 405.13,91.59 396.31,84.99" fill="rgb(102,116,216)" stroke="rgb(102,116,216)" stroke-width=".9" stroke-linejoin="round"/><polygon points="512.39,223.91 514.22,237.89 432.74,113.21" fill="rgb(88,98,189)" stroke="rgb(88,98,189)" stroke-width=".9" stroke-linejoin="round"/><polygon points="176.30,96.33 203.69,84.99 194.87,91.59" fill="rgb(102,116,216)" stroke="rgb(102,116,216)" stroke-width=".9" stroke-linejoin="round"/><polygon points="93.08,210.17 170.68,104.62 167.26,113.21" fill="rgb(83,92,181)" stroke="rgb(83,92,181)" stroke-width=".9" stroke-linejoin="round"/><polygon points="87.61,223.91 166.11,121.94 85.78,237.89" fill="rgb(84,92,181)" stroke="rgb(84,92,181)" stroke-width=".9" stroke-linejoin="round"/><polygon points="415.95,88.47 423.70,96.33 405.13,91.59" fill="rgb(102,116,216)" stroke="rgb(102,116,216)" stroke-width=".9" stroke-linejoin="round"/><polygon points="423.70,96.33 412.16,98.72 405.13,91.59" fill="rgb(102,116,216)" stroke="rgb(102,116,216)" stroke-width=".9" stroke-linejoin="round"/><polygon points="512.39,223.91 432.74,113.21 429.32,104.62" fill="rgb(87,96,187)" stroke="rgb(87,96,187)" stroke-width=".9" stroke-linejoin="round"/><polygon points="176.30,96.33 194.87,91.59 170.68,104.62" fill="rgb(102,116,216)" stroke="rgb(102,116,216)" stroke-width=".9" stroke-linejoin="round"/><polygon points="170.68,104.62 194.87,91.59 187.84,98.72" fill="rgb(102,116,216)" stroke="rgb(102,116,216)" stroke-width=".9" stroke-linejoin="round"/><polygon points="423.70,96.33 429.32,104.62 412.16,98.72" fill="rgb(102,116,216)" stroke="rgb(102,116,216)" stroke-width=".9" stroke-linejoin="round"/><polygon points="514.22,237.89 512.39,251.87 433.89,121.94" fill="rgb(90,100,192)" stroke="rgb(90,100,192)" stroke-width=".9" stroke-linejoin="round"/><polygon points="87.61,223.91 167.26,113.21 166.11,121.94" fill="rgb(84,92,181)" stroke="rgb(84,92,181)" stroke-width=".9" stroke-linejoin="round"/><polygon points="170.68,104.62 187.84,98.72 182.74,106.23" fill="rgb(102,116,216)" stroke="rgb(102,116,216)" stroke-width=".9" stroke-linejoin="round"/><polygon points="429.32,104.62 417.26,106.23 412.16,98.72" fill="rgb(102,116,216)" stroke="rgb(102,116,216)" stroke-width=".9" stroke-linejoin="round"/><polygon points="85.78,237.89 167.26,130.68 87.61,251.87" fill="rgb(85,94,184)" stroke="rgb(85,94,184)" stroke-width=".9" stroke-linejoin="round"/><polygon points="514.22,237.89 433.89,121.94 432.74,113.21" fill="rgb(88,98,189)" stroke="rgb(88,98,189)" stroke-width=".9" stroke-linejoin="round"/><polygon points="170.68,104.62 182.74,106.23 167.26,113.21" fill="rgb(102,116,216)" stroke="rgb(102,116,216)" stroke-width=".9" stroke-linejoin="round"/><polygon points="429.32,104.62 432.74,113.21 417.26,106.23" fill="rgb(102,116,216)" stroke="rgb(102,116,216)" stroke-width=".9" stroke-linejoin="round"/><polygon points="167.26,113.21 182.74,106.23 179.64,114.02" fill="rgb(102,116,216)" stroke="rgb(102,116,216)" stroke-width=".9" stroke-linejoin="round"/><polygon points="432.74,113.21 420.36,114.02 417.26,106.23" fill="rgb(102,116,216)" stroke="rgb(102,116,216)" stroke-width=".9" stroke-linejoin="round"/><polygon points="85.78,237.89 166.11,121.94 167.26,130.68" fill="rgb(85,94,184)" stroke="rgb(85,94,184)" stroke-width=".9" stroke-linejoin="round"/><polygon points="512.39,251.87 506.92,265.61 432.74,130.68" fill="rgb(91,102,195)" stroke="rgb(91,102,195)" stroke-width=".9" stroke-linejoin="round"/><polygon points="87.61,251.87 170.68,139.27 93.08,265.61" fill="rgb(87,96,187)" stroke="rgb(87,96,187)" stroke-width=".9" stroke-linejoin="round"/><polygon points="167.26,113.21 179.64,114.02 178.60,121.94" fill="rgb(102,116,216)" stroke="rgb(102,116,216)" stroke-width=".9" stroke-linejoin="round"/><polygon points="432.74,113.21 433.89,121.94 420.36,114.02" fill="rgb(102,116,216)" stroke="rgb(102,116,216)" stroke-width=".9" stroke-linejoin="round"/><polygon points="512.39,251.87 432.74,130.68 433.89,121.94" fill="rgb(90,100,192)" stroke="rgb(90,100,192)" stroke-width=".9" stroke-linejoin="round"/><polygon points="167.26,113.21 178.60,121.94 166.11,121.94" fill="rgb(102,116,216)" stroke="rgb(102,116,216)" stroke-width=".9" stroke-linejoin="round"/><polygon points="433.89,121.94 421.40,121.94 420.36,114.02" fill="rgb(102,116,216)" stroke="rgb(102,116,216)" stroke-width=".9" stroke-linejoin="round"/><polygon points="87.61,251.87 167.26,130.68 170.68,139.27" fill="rgb(87,96,187)" stroke="rgb(87,96,187)" stroke-width=".9" stroke-linejoin="round"/><polygon points="166.11,121.94 178.60,121.94 179.64,129.87" fill="rgb(102,116,216)" stroke="rgb(102,116,216)" stroke-width=".9" stroke-linejoin="round"/><polygon points="433.89,121.94 432.74,130.68 421.40,121.94" fill="rgb(102,116,216)" stroke="rgb(102,116,216)" stroke-width=".9" stroke-linejoin="round"/><polygon points="506.92,265.61 497.91,278.88 429.32,139.27" fill="rgb(92,103,197)" stroke="rgb(92,103,197)" stroke-width=".9" stroke-linejoin="round"/><polygon points="506.92,265.61 429.32,139.27 432.74,130.68" fill="rgb(91,102,195)" stroke="rgb(91,102,195)" stroke-width=".9" stroke-linejoin="round"/><polygon points="166.11,121.94 179.64,129.87 167.26,130.68" fill="rgb(102,116,216)" stroke="rgb(102,116,216)" stroke-width=".9" stroke-linejoin="round"/><polygon points="432.74,130.68 420.36,129.87 421.40,121.94" fill="rgb(102,116,216)" stroke="rgb(102,116,216)" stroke-width=".9" stroke-linejoin="round"/><polygon points="93.08,265.61 176.30,147.56 102.09,278.88" fill="rgb(88,98,189)" stroke="rgb(88,98,189)" stroke-width=".9" stroke-linejoin="round"/><polygon points="93.08,265.61 170.68,139.27 176.30,147.56" fill="rgb(88,98,189)" stroke="rgb(88,98,189)" stroke-width=".9" stroke-linejoin="round"/><polygon points="167.26,130.68 179.64,129.87 182.74,137.65" fill="rgb(102,116,216)" stroke="rgb(102,116,216)" stroke-width=".9" stroke-linejoin="round"/><polygon points="432.74,130.68 417.26,137.65 420.36,129.87" fill="rgb(102,116,216)" stroke="rgb(102,116,216)" stroke-width=".9" stroke-linejoin="round"/><polygon points="432.74,130.68 429.32,139.27 417.26,137.65" fill="rgb(102,116,216)" stroke="rgb(102,116,216)" stroke-width=".9" stroke-linejoin="round"/><polygon points="167.26,130.68 182.74,137.65 170.68,139.27" fill="rgb(102,116,216)" stroke="rgb(102,116,216)" stroke-width=".9" stroke-linejoin="round"/><polygon points="497.91,278.88 485.52,291.45 423.70,147.56" fill="rgb(94,105,200)" stroke="rgb(94,105,200)" stroke-width=".9" stroke-linejoin="round"/><polygon points="497.91,278.88 423.70,147.56 429.32,139.27" fill="rgb(92,103,197)" stroke="rgb(92,103,197)" stroke-width=".9" stroke-linejoin="round"/><polygon points="102.09,278.88 184.05,155.42 114.48,291.45" fill="rgb(90,100,192)" stroke="rgb(90,100,192)" stroke-width=".9" stroke-linejoin="round"/><polygon points="170.68,139.27 182.74,137.65 187.84,145.17" fill="rgb(102,116,216)" stroke="rgb(102,116,216)" stroke-width=".9" stroke-linejoin="round"/><polygon points="429.32,139.27 412.16,145.17 417.26,137.65" fill="rgb(102,116,216)" stroke="rgb(102,116,216)" stroke-width=".9" stroke-linejoin="round"/><polygon points="102.09,278.88 176.30,147.56 184.05,155.42" fill="rgb(90,100,192)" stroke="rgb(90,100,192)" stroke-width=".9" stroke-linejoin="round"/><polygon points="170.68,139.27 187.84,145.17 176.30,147.56" fill="rgb(102,116,216)" stroke="rgb(102,116,216)" stroke-width=".9" stroke-linejoin="round"/><polygon points="429.32,139.27 405.13,152.29 412.16,145.17" fill="rgb(102,116,216)" stroke="rgb(102,116,216)" stroke-width=".9" stroke-linejoin="round"/><polygon points="429.32,139.27 423.70,147.56 405.13,152.29" fill="rgb(102,116,216)" stroke="rgb(102,116,216)" stroke-width=".9" stroke-linejoin="round"/><polygon points="485.52,291.45 415.95,155.42 423.70,147.56" fill="rgb(94,105,200)" stroke="rgb(94,105,200)" stroke-width=".9" stroke-linejoin="round"/><polygon points="485.52,291.45 469.95,303.09 415.95,155.42" fill="rgb(95,106,202)" stroke="rgb(95,106,202)" stroke-width=".9" stroke-linejoin="round"/><polygon points="176.30,147.56 187.84,145.17 194.87,152.29" fill="rgb(102,116,216)" stroke="rgb(102,116,216)" stroke-width=".9" stroke-linejoin="round"/><polygon points="114.48,291.45 193.78,162.70 130.05,303.09" fill="rgb(91,102,195)" stroke="rgb(91,102,195)" stroke-width=".9" stroke-linejoin="round"/><polygon points="114.48,291.45 184.05,155.42 193.78,162.70" fill="rgb(91,102,195)" stroke="rgb(91,102,195)" stroke-width=".9" stroke-linejoin="round"/><polygon points="176.30,147.56 194.87,152.29 184.05,155.42" fill="rgb(102,116,216)" stroke="rgb(102,116,216)" stroke-width=".9" stroke-linejoin="round"/><polygon points="423.70,147.56 396.31,158.89 405.13,152.29" fill="rgb(102,116,216)" stroke="rgb(102,116,216)" stroke-width=".9" stroke-linejoin="round"/><polygon points="184.05,155.42 194.87,152.29 203.69,158.89" fill="rgb(102,116,216)" stroke="rgb(102,116,216)" stroke-width=".9" stroke-linejoin="round"/><polygon points="469.95,303.09 406.22,162.70 415.95,155.42" fill="rgb(95,106,202)" stroke="rgb(95,106,202)" stroke-width=".9" stroke-linejoin="round"/><polygon points="469.95,303.09 451.48,313.63 406.22,162.70" fill="rgb(96,108,204)" stroke="rgb(96,108,204)" stroke-width=".9" stroke-linejoin="round"/><polygon points="423.70,147.56 385.84,164.86 396.31,158.89" fill="rgb(102,116,216)" stroke="rgb(102,116,216)" stroke-width=".9" stroke-linejoin="round"/><polygon points="130.05,303.09 205.33,169.28 148.52,313.63" fill="rgb(92,103,197)" stroke="rgb(92,103,197)" stroke-width=".9" stroke-linejoin="round"/><polygon points="184.05,155.42 203.69,158.89 193.78,162.70" fill="rgb(102,116,216)" stroke="rgb(102,116,216)" stroke-width=".9" stroke-linejoin="round"/><polygon points="130.05,303.09 193.78,162.70 205.33,169.28" fill="rgb(92,103,197)" stroke="rgb(92,103,197)" stroke-width=".9" stroke-linejoin="round"/><polygon points="423.70,147.56 415.95,155.42 366.94,179.92" fill="rgb(102,116,216)" stroke="rgb(102,116,216)" stroke-width=".9" stroke-linejoin="round"/><polygon points="193.78,162.70 203.69,158.89 214.16,164.86" fill="rgb(102,116,216)" stroke="rgb(102,116,216)" stroke-width=".9" stroke-linejoin="round"/><polygon points="406.22,162.70 451.48,313.63 394.67,169.28" fill="rgb(96,108,204)" stroke="rgb(96,108,204)" stroke-width=".9" stroke-linejoin="round"/><polygon points="415.95,155.42 406.22,162.70 381.51,175.05" fill="rgb(102,116,216)" stroke="rgb(102,116,216)" stroke-width=".9" stroke-linejoin="round"/><polygon points="423.70,147.56 351.24,183.79 385.84,164.86" fill="rgb(102,116,216)" stroke="rgb(102,116,216)" stroke-width=".9" stroke-linejoin="round"/><polygon points="451.48,313.63 430.41,322.87 394.67,169.28" fill="rgb(97,109,205)" stroke="rgb(97,109,205)" stroke-width=".9" stroke-linejoin="round"/><polygon points="193.78,162.70 214.16,164.86 205.33,169.28" fill="rgb(102,116,216)" stroke="rgb(102,116,216)" stroke-width=".9" stroke-linejoin="round"/><polygon points="148.52,313.63 218.49,175.05 169.59,322.87" fill="rgb(94,105,200)" stroke="rgb(94,105,200)" stroke-width=".9" stroke-linejoin="round"/><polygon points="148.52,313.63 205.33,169.28 218.49,175.05" fill="rgb(94,105,200)" stroke="rgb(94,105,200)" stroke-width=".9" stroke-linejoin="round"/><polygon points="205.33,169.28 214.16,164.86 226.10,170.10" fill="rgb(102,116,216)" stroke="rgb(102,116,216)" stroke-width=".9" stroke-linejoin="round"/><polygon points="406.22,162.70 394.67,169.28 381.51,175.05" fill="rgb(102,116,216)" stroke="rgb(102,116,216)" stroke-width=".9" stroke-linejoin="round"/><polygon points="415.95,155.42 381.51,175.05 366.94,179.92" fill="rgb(102,116,216)" stroke="rgb(102,116,216)" stroke-width=".9" stroke-linejoin="round"/><polygon points="423.70,147.56 366.94,179.92 351.24,183.79" fill="rgb(102,116,216)" stroke="rgb(102,116,216)" stroke-width=".9" stroke-linejoin="round"/><polygon points="430.41,322.87 381.51,175.05 394.67,169.28" fill="rgb(97,109,205)" stroke="rgb(97,109,205)" stroke-width=".9" stroke-linejoin="round"/><polygon points="218.49,175.05 205.33,169.28 226.10,170.10" fill="rgb(102,116,216)" stroke="rgb(102,116,216)" stroke-width=".9" stroke-linejoin="round"/><polygon points="351.24,183.79 373.90,170.10 385.84,164.86" fill="rgb(102,116,216)" stroke="rgb(102,116,216)" stroke-width=".9" stroke-linejoin="round"/><polygon points="430.41,322.87 407.11,330.65 381.51,175.05" fill="rgb(97,110,207)" stroke="rgb(97,110,207)" stroke-width=".9" stroke-linejoin="round"/><polygon points="218.49,175.05 226.10,170.10 239.30,174.51" fill="rgb(102,116,216)" stroke="rgb(102,116,216)" stroke-width=".9" stroke-linejoin="round"/><polygon points="169.59,322.87 218.49,175.05 233.06,179.92" fill="rgb(95,106,202)" stroke="rgb(95,106,202)" stroke-width=".9" stroke-linejoin="round"/><polygon points="169.59,322.87 233.06,179.92 192.89,330.65" fill="rgb(95,106,202)" stroke="rgb(95,106,202)" stroke-width=".9" stroke-linejoin="round"/><polygon points="351.24,183.79 360.70,174.51 373.90,170.10" fill="rgb(102,116,216)" stroke="rgb(102,116,216)" stroke-width=".9" stroke-linejoin="round"/><polygon points="218.49,175.05 239.30,174.51 233.06,179.92" fill="rgb(102,116,216)" stroke="rgb(102,116,216)" stroke-width=".9" stroke-linejoin="round"/><polygon points="407.11,330.65 366.94,179.92 381.51,175.05" fill="rgb(97,110,207)" stroke="rgb(97,110,207)" stroke-width=".9" stroke-linejoin="round"/><polygon points="233.06,179.92 239.30,174.51 253.54,178.02" fill="rgb(102,116,216)" stroke="rgb(102,116,216)" stroke-width=".9" stroke-linejoin="round"/><polygon points="407.11,330.65 381.98,336.85 366.94,179.92" fill="rgb(98,110,207)" stroke="rgb(98,110,207)" stroke-width=".9" stroke-linejoin="round"/><polygon points="334.65,186.61 346.46,178.02 360.70,174.51" fill="rgb(102,116,216)" stroke="rgb(102,116,216)" stroke-width=".9" stroke-linejoin="round"/><polygon points="192.89,330.65 233.06,179.92 248.76,183.79" fill="rgb(96,108,204)" stroke="rgb(96,108,204)" stroke-width=".9" stroke-linejoin="round"/><polygon points="233.06,179.92 253.54,178.02 248.76,183.79" fill="rgb(102,116,216)" stroke="rgb(102,116,216)" stroke-width=".9" stroke-linejoin="round"/><polygon points="192.89,330.65 248.76,183.79 218.02,336.85" fill="rgb(96,108,204)" stroke="rgb(96,108,204)" stroke-width=".9" stroke-linejoin="round"/><polygon points="248.76,183.79 253.54,178.02 268.58,180.57" fill="rgb(102,116,216)" stroke="rgb(102,116,216)" stroke-width=".9" stroke-linejoin="round"/><polygon points="351.24,183.79 334.65,186.61 360.70,174.51" fill="rgb(102,116,216)" stroke="rgb(102,116,216)" stroke-width=".9" stroke-linejoin="round"/><polygon points="381.98,336.85 351.24,183.79 366.94,179.92" fill="rgb(98,110,207)" stroke="rgb(98,110,207)" stroke-width=".9" stroke-linejoin="round"/><polygon points="317.48,188.31 331.42,180.57 346.46,178.02" fill="rgb(102,116,216)" stroke="rgb(102,116,216)" stroke-width=".9" stroke-linejoin="round"/><polygon points="265.35,186.61 268.58,180.57 284.15,182.12" fill="rgb(102,116,216)" stroke="rgb(102,116,216)" stroke-width=".9" stroke-linejoin="round"/><polygon points="248.76,183.79 268.58,180.57 265.35,186.61" fill="rgb(102,116,216)" stroke="rgb(102,116,216)" stroke-width=".9" stroke-linejoin="round"/><polygon points="317.48,188.31 315.85,182.12 331.42,180.57" fill="rgb(102,116,216)" stroke="rgb(102,116,216)" stroke-width=".9" stroke-linejoin="round"/><polygon points="218.02,336.85 248.76,183.79 265.35,186.61" fill="rgb(97,109,205)" stroke="rgb(97,109,205)" stroke-width=".9" stroke-linejoin="round"/><polygon points="381.98,336.85 355.44,341.35 351.24,183.79" fill="rgb(98,111,208)" stroke="rgb(98,111,208)" stroke-width=".9" stroke-linejoin="round"/><polygon points="317.48,188.31 346.46,178.02 334.65,186.61" fill="rgb(102,116,216)" stroke="rgb(102,116,216)" stroke-width=".9" stroke-linejoin="round"/><polygon points="282.52,188.31 284.15,182.12 300.00,182.64" fill="rgb(102,116,216)" stroke="rgb(102,116,216)" stroke-width=".9" stroke-linejoin="round"/><polygon points="300.00,188.89 300.00,182.64 315.85,182.12" fill="rgb(102,116,216)" stroke="rgb(102,116,216)" stroke-width=".9" stroke-linejoin="round"/><polygon points="218.02,336.85 265.35,186.61 244.56,341.35" fill="rgb(97,109,205)" stroke="rgb(97,109,205)" stroke-width=".9" stroke-linejoin="round"/><polygon points="282.52,188.31 265.35,186.61 284.15,182.12" fill="rgb(102,116,216)" stroke="rgb(102,116,216)" stroke-width=".9" stroke-linejoin="round"/><polygon points="355.44,341.35 334.65,186.61 351.24,183.79" fill="rgb(98,111,208)" stroke="rgb(98,111,208)" stroke-width=".9" stroke-linejoin="round"/><polygon points="317.48,188.31 300.00,188.89 315.85,182.12" fill="rgb(102,116,216)" stroke="rgb(102,116,216)" stroke-width=".9" stroke-linejoin="round"/><polygon points="282.52,188.31 300.00,182.64 300.00,188.89" fill="rgb(102,116,216)" stroke="rgb(102,116,216)" stroke-width=".9" stroke-linejoin="round"/><polygon points="244.56,341.35 265.35,186.61 282.52,188.31" fill="rgb(97,110,207)" stroke="rgb(97,110,207)" stroke-width=".9" stroke-linejoin="round"/><polygon points="327.96,344.08 334.65,186.61 355.44,341.35" fill="rgb(98,111,208)" stroke="rgb(98,111,208)" stroke-width=".9" stroke-linejoin="round"/><polygon points="327.96,344.08 317.48,188.31 334.65,186.61" fill="rgb(98,111,208)" stroke="rgb(98,111,208)" stroke-width=".9" stroke-linejoin="round"/><polygon points="244.56,341.35 282.52,188.31 272.04,344.08" fill="rgb(97,110,207)" stroke="rgb(97,110,207)" stroke-width=".9" stroke-linejoin="round"/><polygon points="272.04,344.08 282.52,188.31 300.00,188.89" fill="rgb(98,110,207)" stroke="rgb(98,110,207)" stroke-width=".9" stroke-linejoin="round"/><polygon points="300.00,345.00 300.00,188.89 317.48,188.31" fill="rgb(98,111,208)" stroke="rgb(98,111,208)" stroke-width=".9" stroke-linejoin="round"/><polygon points="300.00,345.00 317.48,188.31 327.96,344.08" fill="rgb(98,111,208)" stroke="rgb(98,111,208)" stroke-width=".9" stroke-linejoin="round"/><polygon points="300.00,345.00 272.04,344.08 300.00,188.89" fill="rgb(98,110,207)" stroke="rgb(98,110,207)" stroke-width=".9" stroke-linejoin="round"/></svg>